STARTFONT 2.1
FONT -Monotype-Times New Roman Tur-Bold-R-Normal--14-140-75-75-P-69-Monotype-FontSpecific
SIZE 14 75 75
FONTBOUNDINGBOX 15 17 0 -4

STARTPROPERTIES 22
FOUNDRY "Monotype"
FAMILY_NAME "Times New Roman Tur"
WEIGHT_NAME "Bold"
SLANT "R"
SETWIDTH_NAME "Normal"
ADD_STYLE_NAME ""
PIXEL_SIZE 14
POINT_SIZE 140
RESOLUTION_X 75
RESOLUTION_Y 75
SPACING "P"
AVERAGE_WIDTH 69
CHARSET_REGISTRY "Monotype"
CHARSET_ENCODING "FontSpecific"
COPYRIGHT "Copyright (c) 1996 Monotype Typography Ltd."
CAP_HEIGHT 11
X_HEIGHT 7
WEIGHT 10
QUAD_WIDTH 9
DEFAULT_CHAR 160
FONT_DESCENT 4
FONT_ASCENT 13
ENDPROPERTIES

CHARS 191

STARTCHAR space
ENCODING 32
SWIDTH 250 0
DWIDTH 5 0
BBX 0 0 0 0
BITMAP
ENDCHAR

STARTCHAR exclam
ENCODING 33
SWIDTH 333 0
DWIDTH 5 0
BBX 2 10 1 0
BITMAP
C0
C0
C0
C0
C0
40
40
00
C0
C0
ENDCHAR

STARTCHAR quotedbl
ENCODING 34
SWIDTH 555 0
DWIDTH 8 0
BBX 6 5 1 5
BITMAP
CC
CC
CC
CC
44
ENDCHAR

STARTCHAR numbersign
ENCODING 35
SWIDTH 500 0
DWIDTH 8 0
BBX 7 10 0 0
BITMAP
12
12
12
FE
24
24
FE
48
48
48
ENDCHAR

STARTCHAR dollar
ENCODING 36
SWIDTH 500 0
DWIDTH 8 0
BBX 7 12 0 -1
BITMAP
10
7C
D6
D6
D0
78
1C
16
D6
D6
78
10
ENDCHAR

STARTCHAR percent
ENCODING 37
SWIDTH 1000 0
DWIDTH 15 0
BBX 13 10 1 0
BITMAP
7020
D840
D880
D900
DA70
72D8
04D8
08D8
10D8
1070
ENDCHAR

STARTCHAR ampersand
ENCODING 38
SWIDTH 833 0
DWIDTH 12 0
BBX 11 10 1 0
BITMAP
0E00
1300
3300
3200
15C0
7880
CD00
C600
C360
7DC0
ENDCHAR

STARTCHAR quoteright
ENCODING 39
SWIDTH 333 0
DWIDTH 5 0
BBX 2 4 2 6
BITMAP
C0
C0
40
80
ENDCHAR

STARTCHAR parenleft
ENCODING 40
SWIDTH 333 0
DWIDTH 5 0
BBX 4 13 0 -3
BITMAP
30
60
60
C0
C0
C0
C0
C0
C0
C0
60
60
30
ENDCHAR

STARTCHAR parenright
ENCODING 41
SWIDTH 333 0
DWIDTH 5 0
BBX 4 13 0 -3
BITMAP
C0
60
60
30
30
30
30
30
30
30
60
60
C0
ENDCHAR

STARTCHAR asterisk
ENCODING 42
SWIDTH 500 0
DWIDTH 8 0
BBX 8 6 0 4
BITMAP
5A
DB
3C
3C
DB
5A
ENDCHAR

STARTCHAR plus
ENCODING 43
SWIDTH 570 0
DWIDTH 9 0
BBX 9 9 0 0
BITMAP
0800
0800
0800
0800
FF80
0800
0800
0800
0800
ENDCHAR

STARTCHAR comma
ENCODING 44
SWIDTH 250 0
DWIDTH 4 0
BBX 2 4 1 -2
BITMAP
C0
C0
40
80
ENDCHAR

STARTCHAR minus
ENCODING 45
SWIDTH 570 0
DWIDTH 9 0
BBX 8 1 0 3
BITMAP
FF
ENDCHAR

STARTCHAR period
ENCODING 46
SWIDTH 250 0
DWIDTH 4 0
BBX 2 2 1 0
BITMAP
C0
C0
ENDCHAR

STARTCHAR slash
ENCODING 47
SWIDTH 278 0
DWIDTH 4 0
BBX 4 10 0 0
BITMAP
10
10
20
20
20
40
40
40
80
80
ENDCHAR

STARTCHAR zero
ENCODING 48
SWIDTH 500 0
DWIDTH 8 0
BBX 6 10 1 0
BITMAP
78
CC
CC
CC
CC
CC
CC
CC
CC
78
ENDCHAR

STARTCHAR one
ENCODING 49
SWIDTH 500 0
DWIDTH 8 0
BBX 4 10 2 0
BITMAP
20
E0
60
60
60
60
60
60
60
F0
ENDCHAR

STARTCHAR two
ENCODING 50
SWIDTH 500 0
DWIDTH 8 0
BBX 7 10 0 0
BITMAP
38
7C
8C
0C
0C
18
10
22
7C
FC
ENDCHAR

STARTCHAR three
ENCODING 51
SWIDTH 500 0
DWIDTH 8 0
BBX 7 10 0 0
BITMAP
78
DC
0C
18
3C
0E
06
06
CC
78
ENDCHAR

STARTCHAR four
ENCODING 52
SWIDTH 500 0
DWIDTH 8 0
BBX 7 10 0 0
BITMAP
04
0C
1C
2C
2C
4C
FE
FE
0C
0C
ENDCHAR

STARTCHAR five
ENCODING 53
SWIDTH 500 0
DWIDTH 8 0
BBX 6 10 1 0
BITMAP
7C
7C
40
F0
FC
1C
0C
0C
D8
F0
ENDCHAR

STARTCHAR six
ENCODING 54
SWIDTH 500 0
DWIDTH 8 0
BBX 6 10 1 0
BITMAP
1C
30
60
D8
EC
CC
CC
CC
CC
78
ENDCHAR

STARTCHAR seven
ENCODING 55
SWIDTH 500 0
DWIDTH 8 0
BBX 7 10 1 0
BITMAP
7E
7C
84
08
08
10
10
10
20
20
ENDCHAR

STARTCHAR eight
ENCODING 56
SWIDTH 500 0
DWIDTH 8 0
BBX 6 10 1 0
BITMAP
78
CC
CC
68
30
58
CC
CC
CC
78
ENDCHAR

STARTCHAR nine
ENCODING 57
SWIDTH 500 0
DWIDTH 8 0
BBX 6 10 1 0
BITMAP
78
CC
CC
CC
CC
DC
6C
18
30
E0
ENDCHAR

STARTCHAR colon
ENCODING 58
SWIDTH 333 0
DWIDTH 5 0
BBX 2 7 1 0
BITMAP
C0
C0
00
00
00
C0
C0
ENDCHAR

STARTCHAR semicolon
ENCODING 59
SWIDTH 333 0
DWIDTH 5 0
BBX 2 9 1 -2
BITMAP
C0
C0
00
00
00
C0
C0
40
80
ENDCHAR

STARTCHAR less
ENCODING 60
SWIDTH 570 0
DWIDTH 9 0
BBX 8 7 0 0
BITMAP
03
0C
30
C0
30
0C
03
ENDCHAR

STARTCHAR equal
ENCODING 61
SWIDTH 570 0
DWIDTH 9 0
BBX 8 4 0 2
BITMAP
FF
00
00
FF
ENDCHAR

STARTCHAR greater
ENCODING 62
SWIDTH 570 0
DWIDTH 9 0
BBX 8 7 0 0
BITMAP
C0
30
0C
03
0C
30
C0
ENDCHAR

STARTCHAR question
ENCODING 63
SWIDTH 500 0
DWIDTH 8 0
BBX 6 10 1 0
BITMAP
78
CC
CC
0C
18
30
30
00
30
30
ENDCHAR

STARTCHAR at
ENCODING 64
SWIDTH 930 0
DWIDTH 14 0
BBX 13 13 0 -3
BITMAP
0FC0
3030
2010
4348
46C8
8CC8
9988
9B90
9DB0
4CC8
4010
3060
0F80
ENDCHAR

STARTCHAR A
ENCODING 65
SWIDTH 722 0
DWIDTH 11 0
BBX 11 10 0 0
BITMAP
0400
0E00
0E00
1300
1300
2180
3F80
2180
40C0
E1E0
ENDCHAR

STARTCHAR B
ENCODING 66
SWIDTH 667 0
DWIDTH 10 0
BBX 8 10 1 0
BITMAP
FC
66
63
66
7C
66
63
63
66
FC
ENDCHAR

STARTCHAR C
ENCODING 67
SWIDTH 722 0
DWIDTH 11 0
BBX 9 10 1 0
BITMAP
1E80
3180
6080
C000
C000
C000
C000
6080
3100
1E00
ENDCHAR

STARTCHAR D
ENCODING 68
SWIDTH 722 0
DWIDTH 11 0
BBX 9 10 1 0
BITMAP
FC00
6600
6300
6180
6180
6180
6180
6300
6600
FC00
ENDCHAR

STARTCHAR E
ENCODING 69
SWIDTH 667 0
DWIDTH 10 0
BBX 9 10 1 0
BITMAP
FF00
6100
6100
6400
7C00
6400
6000
6080
6100
FF00
ENDCHAR

STARTCHAR F
ENCODING 70
SWIDTH 611 0
DWIDTH 9 0
BBX 8 10 1 0
BITMAP
FF
61
61
64
7C
64
60
60
60
F0
ENDCHAR

STARTCHAR G
ENCODING 71
SWIDTH 778 0
DWIDTH 12 0
BBX 10 10 1 0
BITMAP
1E80
3180
6080
C000
C000
C3C0
C180
6180
3180
1F00
ENDCHAR

STARTCHAR H
ENCODING 72
SWIDTH 778 0
DWIDTH 12 0
BBX 10 10 1 0
BITMAP
F3C0
6180
6180
6180
7F80
6180
6180
6180
6180
F3C0
ENDCHAR

STARTCHAR I
ENCODING 73
SWIDTH 389 0
DWIDTH 6 0
BBX 4 10 1 0
BITMAP
F0
60
60
60
60
60
60
60
60
F0
ENDCHAR

STARTCHAR J
ENCODING 74
SWIDTH 500 0
DWIDTH 8 0
BBX 7 10 0 0
BITMAP
1E
0C
0C
0C
0C
0C
0C
CC
CC
78
ENDCHAR

STARTCHAR K
ENCODING 75
SWIDTH 778 0
DWIDTH 12 0
BBX 11 10 1 0
BITMAP
F3C0
6100
6200
6400
7800
6C00
6600
6300
6180
F3E0
ENDCHAR

STARTCHAR L
ENCODING 76
SWIDTH 667 0
DWIDTH 10 0
BBX 9 10 1 0
BITMAP
F000
6000
6000
6000
6000
6000
6000
6080
6100
FF00
ENDCHAR

STARTCHAR M
ENCODING 77
SWIDTH 944 0
DWIDTH 14 0
BBX 12 10 1 0
BITMAP
E070
60E0
70E0
7160
5960
5960
5A60
4E60
4C60
E4F0
ENDCHAR

STARTCHAR N
ENCODING 78
SWIDTH 722 0
DWIDTH 11 0
BBX 9 10 1 0
BITMAP
E380
7100
7100
5900
5900
4D00
4700
4700
4300
E100
ENDCHAR

STARTCHAR O
ENCODING 79
SWIDTH 778 0
DWIDTH 12 0
BBX 10 10 1 0
BITMAP
1E00
3300
6180
C0C0
C0C0
C0C0
C0C0
6180
3300
1E00
ENDCHAR

STARTCHAR P
ENCODING 80
SWIDTH 611 0
DWIDTH 9 0
BBX 8 10 1 0
BITMAP
FC
66
63
63
66
7C
60
60
60
F0
ENDCHAR

STARTCHAR Q
ENCODING 81
SWIDTH 778 0
DWIDTH 12 0
BBX 10 13 1 -3
BITMAP
1E00
3300
6180
C0C0
C0C0
C0C0
C0C0
6180
3300
1E00
0C00
0600
0380
ENDCHAR

STARTCHAR R
ENCODING 82
SWIDTH 722 0
DWIDTH 11 0
BBX 10 10 1 0
BITMAP
FC00
6600
6300
6300
6600
7C00
6600
6300
6180
F1C0
ENDCHAR

STARTCHAR S
ENCODING 83
SWIDTH 556 0
DWIDTH 8 0
BBX 6 10 1 0
BITMAP
74
CC
C4
E0
70
38
1C
8C
CC
B8
ENDCHAR

STARTCHAR T
ENCODING 84
SWIDTH 667 0
DWIDTH 10 0
BBX 8 10 1 0
BITMAP
FF
99
99
18
18
18
18
18
18
3C
ENDCHAR

STARTCHAR U
ENCODING 85
SWIDTH 722 0
DWIDTH 11 0
BBX 10 10 1 0
BITMAP
F1C0
6080
6080
6080
6080
6080
6080
6080
3100
1E00
ENDCHAR

STARTCHAR V
ENCODING 86
SWIDTH 722 0
DWIDTH 11 0
BBX 11 10 0 0
BITMAP
F0E0
6040
6040
3080
3080
1900
1900
0E00
0E00
0400
ENDCHAR

STARTCHAR W
ENCODING 87
SWIDTH 1000 0
DWIDTH 15 0
BBX 15 10 0 0
BITMAP
F78E
6304
6304
3188
3188
19D0
1AD0
0C60
0C60
0420
ENDCHAR

STARTCHAR X
ENCODING 88
SWIDTH 722 0
DWIDTH 11 0
BBX 9 10 1 0
BITMAP
F380
6100
3200
3400
1800
0C00
1600
2600
4300
E780
ENDCHAR

STARTCHAR Y
ENCODING 89
SWIDTH 722 0
DWIDTH 11 0
BBX 10 10 1 0
BITMAP
F1C0
6080
3100
3100
1A00
0C00
0C00
0C00
0C00
1E00
ENDCHAR

STARTCHAR Z
ENCODING 90
SWIDTH 667 0
DWIDTH 10 0
BBX 9 10 0 0
BITMAP
3F80
2300
4600
0600
0C00
1800
3000
3080
6100
FF00
ENDCHAR

STARTCHAR bracketleft
ENCODING 91
SWIDTH 333 0
DWIDTH 5 0
BBX 3 13 1 -3
BITMAP
E0
C0
C0
C0
C0
C0
C0
C0
C0
C0
C0
C0
E0
ENDCHAR

STARTCHAR backslash
ENCODING 92
SWIDTH 278 0
DWIDTH 4 0
BBX 4 10 0 0
BITMAP
80
80
40
40
40
20
20
20
10
10
ENDCHAR

STARTCHAR bracketright
ENCODING 93
SWIDTH 333 0
DWIDTH 5 0
BBX 3 13 1 -3
BITMAP
E0
60
60
60
60
60
60
60
60
60
60
60
E0
ENDCHAR

STARTCHAR asciicircum
ENCODING 94
SWIDTH 581 0
DWIDTH 9 0
BBX 7 6 1 4
BITMAP
10
10
28
44
44
82
ENDCHAR

STARTCHAR underscore
ENCODING 95
SWIDTH 500 0
DWIDTH 8 0
BBX 8 1 0 -2
BITMAP
FF
ENDCHAR

STARTCHAR quoteleft
ENCODING 96
SWIDTH 333 0
DWIDTH 5 0
BBX 2 4 1 5
BITMAP
40
80
C0
C0
ENDCHAR

STARTCHAR a
ENCODING 97
SWIDTH 500 0
DWIDTH 8 0
BBX 7 7 1 0
BITMAP
78
CC
0C
7C
CC
DC
6E
ENDCHAR

STARTCHAR b
ENCODING 98
SWIDTH 556 0
DWIDTH 8 0
BBX 7 10 0 0
BITMAP
E0
60
60
6C
76
66
66
66
66
5C
ENDCHAR

STARTCHAR c
ENCODING 99
SWIDTH 444 0
DWIDTH 7 0
BBX 5 7 1 0
BITMAP
70
D8
C0
C0
C0
C8
70
ENDCHAR

STARTCHAR d
ENCODING 100
SWIDTH 556 0
DWIDTH 8 0
BBX 7 10 1 0
BITMAP
1C
0C
0C
6C
DC
CC
CC
CC
DC
6E
ENDCHAR

STARTCHAR e
ENCODING 101
SWIDTH 444 0
DWIDTH 7 0
BBX 5 7 1 0
BITMAP
70
D8
D8
F8
C0
C8
70
ENDCHAR

STARTCHAR f
ENCODING 102
SWIDTH 333 0
DWIDTH 5 0
BBX 6 10 0 0
BITMAP
38
6C
60
F0
60
60
60
60
60
F0
ENDCHAR

STARTCHAR g
ENCODING 103
SWIDTH 500 0
DWIDTH 8 0
BBX 7 10 1 -3
BITMAP
7A
CC
CC
CC
78
C0
F8
7C
84
78
ENDCHAR

STARTCHAR h
ENCODING 104
SWIDTH 556 0
DWIDTH 8 0
BBX 8 10 0 0
BITMAP
E0
60
60
6C
76
66
66
66
66
F7
ENDCHAR

STARTCHAR i
ENCODING 105
SWIDTH 278 0
DWIDTH 4 0
BBX 4 10 0 0
BITMAP
60
60
00
E0
60
60
60
60
60
F0
ENDCHAR

STARTCHAR j
ENCODING 106
SWIDTH 333 0
DWIDTH 5 0
BBX 4 14 0 -4
BITMAP
30
30
00
70
30
30
30
30
30
30
30
30
B0
60
ENDCHAR

STARTCHAR k
ENCODING 107
SWIDTH 556 0
DWIDTH 8 0
BBX 8 10 0 0
BITMAP
E0
60
60
6E
64
68
78
6C
66
F7
ENDCHAR

STARTCHAR l
ENCODING 108
SWIDTH 278 0
DWIDTH 4 0
BBX 4 10 0 0
BITMAP
E0
60
60
60
60
60
60
60
60
F0
ENDCHAR

STARTCHAR m
ENCODING 109
SWIDTH 833 0
DWIDTH 12 0
BBX 12 7 0 0
BITMAP
ECC0
7760
6660
6660
6660
6660
F770
ENDCHAR

STARTCHAR n
ENCODING 110
SWIDTH 556 0
DWIDTH 8 0
BBX 8 7 0 0
BITMAP
EC
76
66
66
66
66
F7
ENDCHAR

STARTCHAR o
ENCODING 111
SWIDTH 500 0
DWIDTH 8 0
BBX 6 7 1 0
BITMAP
78
CC
CC
CC
CC
CC
78
ENDCHAR

STARTCHAR p
ENCODING 112
SWIDTH 556 0
DWIDTH 8 0
BBX 7 10 0 -3
BITMAP
EC
76
66
66
66
76
6C
60
60
F0
ENDCHAR

STARTCHAR q
ENCODING 113
SWIDTH 556 0
DWIDTH 8 0
BBX 7 10 1 -3
BITMAP
74
CC
CC
CC
CC
DC
6C
0C
0C
1E
ENDCHAR

STARTCHAR r
ENCODING 114
SWIDTH 444 0
DWIDTH 7 0
BBX 6 7 0 0
BITMAP
EC
74
60
60
60
60
F0
ENDCHAR

STARTCHAR s
ENCODING 115
SWIDTH 389 0
DWIDTH 6 0
BBX 4 7 1 0
BITMAP
70
D0
C0
60
30
B0
E0
ENDCHAR

STARTCHAR t
ENCODING 116
SWIDTH 333 0
DWIDTH 5 0
BBX 5 10 0 0
BITMAP
20
20
60
F8
60
60
60
60
68
30
ENDCHAR

STARTCHAR u
ENCODING 117
SWIDTH 556 0
DWIDTH 8 0
BBX 8 7 0 0
BITMAP
EE
66
66
66
66
6E
37
ENDCHAR

STARTCHAR v
ENCODING 118
SWIDTH 500 0
DWIDTH 8 0
BBX 8 7 0 0
BITMAP
F7
62
62
34
34
18
10
ENDCHAR

STARTCHAR w
ENCODING 119
SWIDTH 722 0
DWIDTH 11 0
BBX 11 7 0 0
BITMAP
EEE0
6640
6640
3740
3B80
1100
1100
ENDCHAR

STARTCHAR x
ENCODING 120
SWIDTH 500 0
DWIDTH 8 0
BBX 8 7 0 0
BITMAP
F7
62
34
18
2C
46
EF
ENDCHAR

STARTCHAR y
ENCODING 121
SWIDTH 500 0
DWIDTH 8 0
BBX 8 10 0 -3
BITMAP
F7
62
62
34
34
18
18
10
D0
60
ENDCHAR

STARTCHAR z
ENCODING 122
SWIDTH 444 0
DWIDTH 7 0
BBX 5 7 1 0
BITMAP
F8
98
30
30
60
C8
F8
ENDCHAR

STARTCHAR braceleft
ENCODING 123
SWIDTH 394 0
DWIDTH 6 0
BBX 4 13 1 -3
BITMAP
30
60
60
60
60
60
C0
60
60
60
60
60
30
ENDCHAR

STARTCHAR bar
ENCODING 124
SWIDTH 220 0
DWIDTH 3 0
BBX 1 14 1 -4
BITMAP
80
80
80
80
80
80
80
80
80
80
80
80
80
80
ENDCHAR

STARTCHAR braceright
ENCODING 125
SWIDTH 394 0
DWIDTH 6 0
BBX 4 13 1 -3
BITMAP
C0
60
60
60
60
60
30
60
60
60
60
60
C0
ENDCHAR

STARTCHAR asciitilde
ENCODING 126
SWIDTH 520 0
DWIDTH 8 0
BBX 8 3 0 3
BITMAP
31
7E
8C
ENDCHAR

STARTCHAR space
ENCODING 160
SWIDTH 250 0
DWIDTH 4 0
BBX 0 0 0 0
BITMAP
ENDCHAR

STARTCHAR exclamdown
ENCODING 161
SWIDTH 333 0
DWIDTH 5 0
BBX 2 10 1 -4
BITMAP
C0
C0
00
80
80
C0
C0
C0
C0
C0
ENDCHAR

STARTCHAR cent
ENCODING 162
SWIDTH 500 0
DWIDTH 8 0
BBX 6 13 1 -3
BITMAP
04
04
08
78
D4
D4
D0
E0
E4
78
40
80
80
ENDCHAR

STARTCHAR sterling
ENCODING 163
SWIDTH 500 0
DWIDTH 8 0
BBX 7 10 0 0
BITMAP
38
6C
6C
60
F8
60
60
E2
BE
DC
ENDCHAR

STARTCHAR currency
ENCODING 164
SWIDTH 500 0
DWIDTH 8 0
BBX 7 7 0 0
BITMAP
BA
44
82
82
82
44
BA
ENDCHAR

STARTCHAR yen
ENCODING 165
SWIDTH 500 0
DWIDTH 8 0
BBX 8 10 0 0
BITMAP
F7
62
62
34
18
FF
18
FF
18
7E
ENDCHAR

STARTCHAR brokenbar
ENCODING 166
SWIDTH 220 0
DWIDTH 3 0
BBX 1 14 1 -4
BITMAP
80
80
80
80
80
00
00
00
00
80
80
80
80
80
ENDCHAR

STARTCHAR section
ENCODING 167
SWIDTH 500 0
DWIDTH 8 0
BBX 6 14 1 -4
BITMAP
38
6C
6C
60
30
78
CC
CC
78
30
18
D8
D8
70
ENDCHAR

STARTCHAR dieresis
ENCODING 168
SWIDTH 333 0
DWIDTH 5 0
BBX 3 1 1 8
BITMAP
A0
ENDCHAR

STARTCHAR copyright
ENCODING 169
SWIDTH 747 0
DWIDTH 11 0
BBX 11 10 0 0
BITMAP
1F00
60C0
4E40
9B20
B020
B020
9B20
4E40
60C0
1F00
ENDCHAR

STARTCHAR ordfeminine
ENCODING 170
SWIDTH 300 0
DWIDTH 5 0
BBX 5 5 0 5
BITMAP
60
B0
70
B0
D8
ENDCHAR

STARTCHAR guillemotleft
ENCODING 171
SWIDTH 500 0
DWIDTH 8 0
BBX 8 7 0 0
BITMAP
1B
36
6C
D8
6C
36
1B
ENDCHAR

STARTCHAR logicalnot
ENCODING 172
SWIDTH 570 0
DWIDTH 9 0
BBX 8 3 0 2
BITMAP
FF
01
01
ENDCHAR

STARTCHAR hyphen
ENCODING 173
SWIDTH 333 0
DWIDTH 5 0
BBX 5 1 0 6
BITMAP
F8
ENDCHAR

STARTCHAR registered
ENCODING 174
SWIDTH 747 0
DWIDTH 11 0
BBX 11 10 0 0
BITMAP
1F00
60C0
5E40
9B20
9B20
9E20
9B20
5B40
60C0
1F00
ENDCHAR

STARTCHAR macron
ENCODING 175
SWIDTH 333 0
DWIDTH 5 0
BBX 5 1 0 9
BITMAP
F8
ENDCHAR

STARTCHAR degree
ENCODING 176
SWIDTH 400 0
DWIDTH 6 0
BBX 5 5 0 5
BITMAP
70
88
88
88
70
ENDCHAR

STARTCHAR plusminus
ENCODING 177
SWIDTH 570 0
DWIDTH 9 0
BBX 7 8 1 0
BITMAP
10
10
10
FE
10
10
10
FE
ENDCHAR

STARTCHAR twosuperior
ENCODING 178
SWIDTH 300 0
DWIDTH 5 0
BBX 4 6 0 4
BITMAP
60
B0
30
60
C0
F0
ENDCHAR

STARTCHAR threesuperior
ENCODING 179
SWIDTH 300 0
DWIDTH 5 0
BBX 4 6 0 4
BITMAP
60
30
60
30
30
E0
ENDCHAR

STARTCHAR acute
ENCODING 180
SWIDTH 333 0
DWIDTH 5 0
BBX 2 2 1 8
BITMAP
40
80
ENDCHAR

STARTCHAR mu
ENCODING 181
SWIDTH 556 0
DWIDTH 8 0
BBX 8 10 1 -3
BITMAP
CC
CC
CC
CC
CC
DD
EE
80
C0
C0
ENDCHAR

STARTCHAR paragraph
ENCODING 182
SWIDTH 540 0
DWIDTH 8 0
BBX 8 14 0 -4
BITMAP
3F
7A
FA
FA
FA
7A
3A
0A
0A
0A
0A
0A
0A
0A
ENDCHAR

STARTCHAR periodcentered
ENCODING 183
SWIDTH 250 0
DWIDTH 4 0
BBX 2 2 1 4
BITMAP
C0
C0
ENDCHAR

STARTCHAR cedilla
ENCODING 184
SWIDTH 333 0
DWIDTH 5 0
BBX 4 3 0 -3
BITMAP
60
30
E0
ENDCHAR

STARTCHAR onesuperior
ENCODING 185
SWIDTH 300 0
DWIDTH 5 0
BBX 4 6 0 4
BITMAP
60
E0
60
60
60
F0
ENDCHAR

STARTCHAR ordmasculine
ENCODING 186
SWIDTH 330 0
DWIDTH 5 0
BBX 5 5 0 5
BITMAP
70
D8
D8
D8
70
ENDCHAR

STARTCHAR guillemotright
ENCODING 187
SWIDTH 500 0
DWIDTH 8 0
BBX 8 7 0 0
BITMAP
D8
6C
36
1B
36
6C
D8
ENDCHAR

STARTCHAR onequarter
ENCODING 188
SWIDTH 750 0
DWIDTH 11 0
BBX 10 10 0 0
BITMAP
6080
E100
6100
6200
6480
F980
0B80
1580
27C0
4180
ENDCHAR

STARTCHAR onehalf
ENCODING 189
SWIDTH 750 0
DWIDTH 11 0
BBX 10 10 0 0
BITMAP
6080
E100
6100
6200
6580
FAC0
08C0
1180
2300
43C0
ENDCHAR

STARTCHAR threequarters
ENCODING 190
SWIDTH 750 0
DWIDTH 11 0
BBX 11 10 0 0
BITMAP
6040
3080
6080
3100
3240
E4C0
05C0
0AC0
13E0
20C0
ENDCHAR

STARTCHAR questiondown
ENCODING 191
SWIDTH 500 0
DWIDTH 8 0
BBX 6 10 1 -3
BITMAP
30
30
00
30
30
60
C0
CC
CC
78
ENDCHAR

STARTCHAR Agrave
ENCODING 192
SWIDTH 722 0
DWIDTH 11 0
BBX 11 13 0 0
BITMAP
0800
0400
0000
0400
0E00
0E00
1300
1300
2180
3F80
2180
40C0
E1E0
ENDCHAR

STARTCHAR Aacute
ENCODING 193
SWIDTH 722 0
DWIDTH 11 0
BBX 11 13 0 0
BITMAP
0200
0400
0000
0400
0E00
0E00
1300
1300
2180
3F80
2180
40C0
E1E0
ENDCHAR

STARTCHAR Acircumflex
ENCODING 194
SWIDTH 722 0
DWIDTH 11 0
BBX 11 13 0 0
BITMAP
0600
0900
0000
0400
0E00
0E00
1300
1300
2180
3F80
2180
40C0
E1E0
ENDCHAR

STARTCHAR Atilde
ENCODING 195
SWIDTH 722 0
DWIDTH 11 0
BBX 11 13 0 0
BITMAP
0500
0A00
0000
0400
0E00
0E00
1300
1300
2180
3F80
2180
40C0
E1E0
ENDCHAR

STARTCHAR Adieresis
ENCODING 196
SWIDTH 722 0
DWIDTH 11 0
BBX 11 12 0 0
BITMAP
0A00
0000
0400
0E00
0E00
1300
1300
2180
3F80
2180
40C0
E1E0
ENDCHAR

STARTCHAR Aring
ENCODING 197
SWIDTH 722 0
DWIDTH 11 0
BBX 11 12 0 0
BITMAP
0400
0A00
0400
0E00
0E00
1300
1300
2180
3F80
2180
40C0
E1E0
ENDCHAR

STARTCHAR AE
ENCODING 198
SWIDTH 1000 0
DWIDTH 15 0
BBX 15 10 0 0
BITMAP
0FFC
0584
0584
0990
09F0
1F90
2180
2182
4184
E7FC
ENDCHAR

STARTCHAR Ccedilla
ENCODING 199
SWIDTH 722 0
DWIDTH 11 0
BBX 9 13 1 -3
BITMAP
1E80
3180
6080
C000
C000
C000
C000
6080
3100
1E00
0C00
0600
1C00
ENDCHAR

STARTCHAR Egrave
ENCODING 200
SWIDTH 667 0
DWIDTH 10 0
BBX 9 13 1 0
BITMAP
1000
0800
0000
FF00
6100
6100
6400
7C00
6400
6000
6080
6100
FF00
ENDCHAR

STARTCHAR Eacute
ENCODING 201
SWIDTH 667 0
DWIDTH 10 0
BBX 9 13 1 0
BITMAP
0800
1000
0000
FF00
6100
6100
6400
7C00
6400
6000
6080
6100
FF00
ENDCHAR

STARTCHAR Ecircumflex
ENCODING 202
SWIDTH 667 0
DWIDTH 10 0
BBX 9 13 1 0
BITMAP
1800
2400
0000
FF00
6100
6100
6400
7C00
6400
6000
6080
6100
FF00
ENDCHAR

STARTCHAR Edieresis
ENCODING 203
SWIDTH 667 0
DWIDTH 10 0
BBX 9 12 1 0
BITMAP
2400
0000
FF00
6100
6100
6400
7C00
6400
6000
6080
6100
FF00
ENDCHAR

STARTCHAR Igrave
ENCODING 204
SWIDTH 389 0
DWIDTH 6 0
BBX 4 13 1 0
BITMAP
40
20
00
F0
60
60
60
60
60
60
60
60
F0
ENDCHAR

STARTCHAR Iacute
ENCODING 205
SWIDTH 389 0
DWIDTH 6 0
BBX 4 13 1 0
BITMAP
20
40
00
F0
60
60
60
60
60
60
60
60
F0
ENDCHAR

STARTCHAR Icircumflex
ENCODING 206
SWIDTH 389 0
DWIDTH 6 0
BBX 4 13 1 0
BITMAP
60
90
00
F0
60
60
60
60
60
60
60
60
F0
ENDCHAR

STARTCHAR Idieresis
ENCODING 207
SWIDTH 389 0
DWIDTH 6 0
BBX 4 12 1 0
BITMAP
90
00
F0
60
60
60
60
60
60
60
60
F0
ENDCHAR

STARTCHAR Gbreve
ENCODING 208
SWIDTH 778 0
DWIDTH 12 0
BBX 10 13 1 0
BITMAP
0880
0700
0000
1E80
3180
6080
C000
C000
C3C0
C180
6180
3180
1F00
ENDCHAR

STARTCHAR Ntilde
ENCODING 209
SWIDTH 722 0
DWIDTH 11 0
BBX 9 13 1 0
BITMAP
0A00
1400
0000
E380
7100
7100
5900
5900
4D00
4700
4700
4300
E100
ENDCHAR

STARTCHAR Ograve
ENCODING 210
SWIDTH 778 0
DWIDTH 12 0
BBX 10 13 1 0
BITMAP
0800
0400
0000
1E00
3300
6180
C0C0
C0C0
C0C0
C0C0
6180
3300
1E00
ENDCHAR

STARTCHAR Oacute
ENCODING 211
SWIDTH 778 0
DWIDTH 12 0
BBX 10 13 1 0
BITMAP
0400
0800
0000
1E00
3300
6180
C0C0
C0C0
C0C0
C0C0
6180
3300
1E00
ENDCHAR

STARTCHAR Ocircumflex
ENCODING 212
SWIDTH 778 0
DWIDTH 12 0
BBX 10 13 1 0
BITMAP
0C00
1200
0000
1E00
3300
6180
C0C0
C0C0
C0C0
C0C0
6180
3300
1E00
ENDCHAR

STARTCHAR Otilde
ENCODING 213
SWIDTH 778 0
DWIDTH 12 0
BBX 10 13 1 0
BITMAP
0A00
1400
0000
1E00
3300
6180
C0C0
C0C0
C0C0
C0C0
6180
3300
1E00
ENDCHAR

STARTCHAR Odieresis
ENCODING 214
SWIDTH 778 0
DWIDTH 12 0
BBX 10 12 1 0
BITMAP
1200
0000
1E00
3300
6180
C0C0
C0C0
C0C0
C0C0
6180
3300
1E00
ENDCHAR

STARTCHAR multiply
ENCODING 215
SWIDTH 570 0
DWIDTH 9 0
BBX 5 5 2 1
BITMAP
88
50
20
50
88
ENDCHAR

STARTCHAR Oslash
ENCODING 216
SWIDTH 778 0
DWIDTH 12 0
BBX 10 10 1 0
BITMAP
1E40
3380
6180
C2C0
C4C0
C8C0
D0C0
6180
7300
9E00
ENDCHAR

STARTCHAR Ugrave
ENCODING 217
SWIDTH 722 0
DWIDTH 11 0
BBX 10 13 1 0
BITMAP
0800
0400
0000
F1C0
6080
6080
6080
6080
6080
6080
6080
3100
1E00
ENDCHAR

STARTCHAR Uacute
ENCODING 218
SWIDTH 722 0
DWIDTH 11 0
BBX 10 13 1 0
BITMAP
0200
0400
0000
F1C0
6080
6080
6080
6080
6080
6080
6080
3100
1E00
ENDCHAR

STARTCHAR Ucircumflex
ENCODING 219
SWIDTH 722 0
DWIDTH 11 0
BBX 10 13 1 0
BITMAP
0C00
1200
0000
F1C0
6080
6080
6080
6080
6080
6080
6080
3100
1E00
ENDCHAR

STARTCHAR Udieresis
ENCODING 220
SWIDTH 722 0
DWIDTH 11 0
BBX 10 12 1 0
BITMAP
0A00
0000
F1C0
6080
6080
6080
6080
6080
6080
6080
3100
1E00
ENDCHAR

STARTCHAR Idotaccent
ENCODING 221
SWIDTH 389 0
DWIDTH 6 0
BBX 4 12 1 0
BITMAP
20
00
F0
60
60
60
60
60
60
60
60
F0
ENDCHAR

STARTCHAR Scedilla
ENCODING 222
SWIDTH 556 0
DWIDTH 8 0
BBX 6 13 1 -3
BITMAP
74
CC
C4
E0
70
38
1C
8C
CC
B8
30
18
70
ENDCHAR

STARTCHAR germandbls
ENCODING 223
SWIDTH 556 0
DWIDTH 8 0
BBX 7 10 0 0
BITMAP
3C
66
66
66
6C
66
66
66
66
EC
ENDCHAR

STARTCHAR agrave
ENCODING 224
SWIDTH 500 0
DWIDTH 8 0
BBX 7 10 1 0
BITMAP
20
10
00
78
CC
0C
7C
CC
DC
6E
ENDCHAR

STARTCHAR aacute
ENCODING 225
SWIDTH 500 0
DWIDTH 8 0
BBX 7 10 1 0
BITMAP
10
20
00
78
CC
0C
7C
CC
DC
6E
ENDCHAR

STARTCHAR acircumflex
ENCODING 226
SWIDTH 500 0
DWIDTH 8 0
BBX 7 10 1 0
BITMAP
30
48
00
78
CC
0C
7C
CC
DC
6E
ENDCHAR

STARTCHAR atilde
ENCODING 227
SWIDTH 500 0
DWIDTH 8 0
BBX 7 11 1 0
BITMAP
28
50
00
00
78
CC
0C
7C
CC
DC
6E
ENDCHAR

STARTCHAR adieresis
ENCODING 228
SWIDTH 500 0
DWIDTH 8 0
BBX 7 9 1 0
BITMAP
48
00
78
CC
0C
7C
CC
DC
6E
ENDCHAR

STARTCHAR aring
ENCODING 229
SWIDTH 500 0
DWIDTH 8 0
BBX 7 11 1 0
BITMAP
10
28
10
00
78
CC
0C
7C
CC
DC
6E
ENDCHAR

STARTCHAR ae
ENCODING 230
SWIDTH 722 0
DWIDTH 11 0
BBX 9 7 1 0
BITMAP
7B00
CD80
0D80
7F80
CC00
DC80
6700
ENDCHAR

STARTCHAR ccedilla
ENCODING 231
SWIDTH 444 0
DWIDTH 7 0
BBX 5 10 1 -3
BITMAP
70
D8
C0
C0
C0
C8
70
30
18
70
ENDCHAR

STARTCHAR egrave
ENCODING 232
SWIDTH 444 0
DWIDTH 7 0
BBX 5 10 1 0
BITMAP
20
10
00
70
D8
D8
F8
C0
C8
70
ENDCHAR

STARTCHAR eacute
ENCODING 233
SWIDTH 444 0
DWIDTH 7 0
BBX 5 10 1 0
BITMAP
10
20
00
70
D8
D8
F8
C0
C8
70
ENDCHAR

STARTCHAR ecircumflex
ENCODING 234
SWIDTH 444 0
DWIDTH 7 0
BBX 5 10 1 0
BITMAP
30
48
00
70
D8
D8
F8
C0
C8
70
ENDCHAR

STARTCHAR edieresis
ENCODING 235
SWIDTH 444 0
DWIDTH 7 0
BBX 5 9 1 0
BITMAP
50
00
70
D8
D8
F8
C0
C8
70
ENDCHAR

STARTCHAR igrave
ENCODING 236
SWIDTH 278 0
DWIDTH 4 0
BBX 4 10 0 0
BITMAP
40
20
00
E0
60
60
60
60
60
F0
ENDCHAR

STARTCHAR iacute
ENCODING 237
SWIDTH 278 0
DWIDTH 4 0
BBX 4 10 0 0
BITMAP
20
40
00
E0
60
60
60
60
60
F0
ENDCHAR

STARTCHAR icircumflex
ENCODING 238
SWIDTH 278 0
DWIDTH 4 0
BBX 4 10 0 0
BITMAP
60
90
00
E0
60
60
60
60
60
F0
ENDCHAR

STARTCHAR idieresis
ENCODING 239
SWIDTH 278 0
DWIDTH 4 0
BBX 4 9 0 0
BITMAP
90
00
E0
60
60
60
60
60
F0
ENDCHAR

STARTCHAR gbreve
ENCODING 240
SWIDTH 500 0
DWIDTH 8 0
BBX 7 13 1 -3
BITMAP
44
38
00
7A
CC
CC
CC
78
C0
F8
7C
84
78
ENDCHAR

STARTCHAR ntilde
ENCODING 241
SWIDTH 556 0
DWIDTH 8 0
BBX 8 10 0 0
BITMAP
14
28
00
EC
76
66
66
66
66
F7
ENDCHAR

STARTCHAR ograve
ENCODING 242
SWIDTH 500 0
DWIDTH 8 0
BBX 6 10 1 0
BITMAP
20
10
00
78
CC
CC
CC
CC
CC
78
ENDCHAR

STARTCHAR oacute
ENCODING 243
SWIDTH 500 0
DWIDTH 8 0
BBX 6 10 1 0
BITMAP
10
20
00
78
CC
CC
CC
CC
CC
78
ENDCHAR

STARTCHAR ocircumflex
ENCODING 244
SWIDTH 500 0
DWIDTH 8 0
BBX 6 10 1 0
BITMAP
30
48
00
78
CC
CC
CC
CC
CC
78
ENDCHAR

STARTCHAR otilde
ENCODING 245
SWIDTH 500 0
DWIDTH 8 0
BBX 6 10 1 0
BITMAP
28
50
00
78
CC
CC
CC
CC
CC
78
ENDCHAR

STARTCHAR odieresis
ENCODING 246
SWIDTH 500 0
DWIDTH 8 0
BBX 6 9 1 0
BITMAP
48
00
78
CC
CC
CC
CC
CC
78
ENDCHAR

STARTCHAR divide
ENCODING 247
SWIDTH 570 0
DWIDTH 9 0
BBX 7 5 1 1
BITMAP
10
00
FE
00
10
ENDCHAR

STARTCHAR oslash
ENCODING 248
SWIDTH 500 0
DWIDTH 8 0
BBX 8 7 0 0
BITMAP
3D
66
66
6E
76
66
BC
ENDCHAR

STARTCHAR ugrave
ENCODING 249
SWIDTH 556 0
DWIDTH 8 0
BBX 8 10 0 0
BITMAP
10
08
00
EE
66
66
66
66
6E
37
ENDCHAR

STARTCHAR uacute
ENCODING 250
SWIDTH 556 0
DWIDTH 8 0
BBX 8 10 0 0
BITMAP
08
10
00
EE
66
66
66
66
6E
37
ENDCHAR

STARTCHAR ucircumflex
ENCODING 251
SWIDTH 556 0
DWIDTH 8 0
BBX 8 10 0 0
BITMAP
18
24
00
EE
66
66
66
66
6E
37
ENDCHAR

STARTCHAR udieresis
ENCODING 252
SWIDTH 556 0
DWIDTH 8 0
BBX 8 9 0 0
BITMAP
24
00
EE
66
66
66
66
6E
37
ENDCHAR

STARTCHAR dotlessi
ENCODING 253
SWIDTH 278 0
DWIDTH 4 0
BBX 4 7 0 0
BITMAP
E0
60
60
60
60
60
F0
ENDCHAR

STARTCHAR scedilla
ENCODING 254
SWIDTH 389 0
DWIDTH 6 0
BBX 4 10 1 -3
BITMAP
70
D0
C0
60
30
B0
E0
60
30
E0
ENDCHAR

STARTCHAR ydieresis
ENCODING 255
SWIDTH 500 0
DWIDTH 8 0
BBX 8 12 0 -3
BITMAP
24
00
F7
62
62
34
34
18
18
10
D0
60
ENDCHAR
ENDFONT
